<?xml version="1.0" encoding="utf-8"?>
<!-- Svg Vector Icons : http://www.onlinewebfonts.com/icon -->
<!DOCTYPE svg PUBLIC "-//W3C//DTD SVG 1.1//EN" "http://www.w3.org/Graphics/SVG/1.1/DTD/svg11.dtd">
<svg version="1.1" xmlns="http://www.w3.org/2000/svg" xmlns:xlink="http://www.w3.org/1999/xlink" x="0px" y="0px" viewBox="0 0 1000 1000" enable-background="new 0 0 1000 1000" xml:space="preserve">
<metadata> Svg Vector Icons : http://www.onlinewebfonts.com/icon </metadata>
<g><g transform="translate(0.000000,512.000000) scale(0.100000,-0.100000)"><path d="M4741.4,5014.1c-423.3-65.1-737.3-181.9-1072.5-400.3c-616.7-398.3-1053.3-1055.3-1220-1827.1c-38.3-170.4-40.2-260.5-47.9-1269.8l-7.7-1087.8H1953h-438.6v-2604.6V-4780H5000h3485.6v2604.6V429.2H8047h-440.5l-7.6,1097.4c-7.7,1034.2-9.6,1105-47.9,1279.3c-65.1,287.3-128.3,467.3-262.4,735.4c-149.4,300.7-306.4,515.2-557.3,758.4c-363.9,352.4-785.2,578.4-1262.1,678C5321.7,5008.3,4860.2,5031.3,4741.4,5014.1z M5298.7,4698.1c316-44,683.7-183.9,949.9-363.9c67-44,193.4-151.3,281.5-235.6c367.7-354.3,589.9-764.1,714.4-1311.9c38.3-174.3,42.1-241.3,47.9-1269.8l7.6-1087.8H5000H2699.9l7.7,1087.8c5.7,1032.3,9.6,1095.5,49.8,1271.7c113,503.7,340.9,930.8,681.8,1269.7C3937.1,4558.3,4618.9,4793.8,5298.7,4698.1z M8179.2-2175.4v-2298.2H5000H1820.8v2298.2V122.8H5000h3179.2V-2175.4z"/><path d="M4741.4-555.2c-421.3-120.7-723.9-448.1-796.7-863.7c-57.5-337.1,72.8-718.2,333.2-959.5l109.2-101.5v-632v-633.9H5000h612.9v633.9v632l111.1,101.5c124.5,118.8,218.3,262.4,283.4,442.4c193.4,532.4-91.9,1133.8-635.8,1342.5C5208.7-530.3,4896.6-511.1,4741.4-555.2z M5344.7-896.1c160.9-74.7,256.6-170.5,339-337.1c70.9-139.8,72.8-151.3,72.8-346.7c0-166.6-9.6-222.1-44-312.2c-53.6-132.2-176.2-273.9-308.4-350.5l-97.7-57.5v-568.8v-570.7H5000h-306.4v570.7v568.8l-97.7,57.5c-132.1,76.6-254.7,218.3-308.3,350.5c-34.5,88.1-44,145.5-44,310.3c0,185.8,3.8,210.7,59.4,325.6c97.7,204.9,216.4,316,415.6,386.9C4871.7-815.6,5201.1-829,5344.7-896.1z"/></g></g>
</svg>