<?xml version="1.0" encoding="utf-8"?>
<!-- Svg Vector Icons : http://www.onlinewebfonts.com/icon -->
<!DOCTYPE svg PUBLIC "-//W3C//DTD SVG 1.1//EN" "http://www.w3.org/Graphics/SVG/1.1/DTD/svg11.dtd">
<svg version="1.1" xmlns="http://www.w3.org/2000/svg" xmlns:xlink="http://www.w3.org/1999/xlink" x="0px" y="0px" viewBox="0 0 1000 1000" enable-background="new 0 0 1000 1000" xml:space="preserve">
<metadata> Svg Vector Icons : http://www.onlinewebfonts.com/icon </metadata>
<g><path d="M187.8,634.8v89.4c33.6-6.4,68.9-13,106-20c39.1-7.3,80.3-15.1,123.8-23.2V576.7c-43.5,11-84.8,21.4-123.8,31.3C256.7,617.4,221.4,626.3,187.8,634.8z"/><path d="M187.8,893.2v89.2h229.8V878.2c-43.5,2.8-84.7,5.5-123.8,8C256.7,888.7,221.4,891,187.8,893.2z"/><path d="M187.8,763.1v89.3c33.6-3.2,68.9-6.5,106-10c39.1-3.7,80.3-7.6,123.8-11.7V726.4c-43.5,7-84.8,13.5-123.8,19.8C256.7,752.1,221.4,757.8,187.8,763.1z"/><path d="M187.8,507.4v89.4c33.6-9.5,68.9-19.3,106-29.8c39.1-10.9,80.3-22.5,123.8-34.7V428c-43.5,15-84.8,29.3-123.8,42.8C256.7,483.6,221.4,495.8,187.8,507.4z"/><path d="M880.2,87.1L880.2,87.1L763.6,10L721,29.9l-370,173l-17.1,8v137.8l-220.4,76.6l-20.1,7v498.4H74.5V990h78.7V474.2l310.2-107.8v618.1H685v-59.2h-46.1v-570L523,283l-3.9,1.4l-1,0.4l-34.7,12.1L393.6,328v-79.7l310.2-145.1v883h221.7v-59.2h-45.4V87.1z"/></g>
</svg>